<?xml version="1.0" encoding="utf-8"?>
<!-- Generator: Adobe Illustrator 18.0.0, SVG Export Plug-In . SVG Version: 6.00 Build 0)  -->
<!DOCTYPE svg PUBLIC "-//W3C//DTD SVG 1.1//EN" "http://www.w3.org/Graphics/SVG/1.1/DTD/svg11.dtd">
<svg version="1.1" id="Layer_1" xmlns="http://www.w3.org/2000/svg" xmlns:xlink="http://www.w3.org/1999/xlink" x="0px" y="0px"
	 viewBox="0 0 46 40" enable-background="new 0 0 46 40" xml:space="preserve">
<g id="tab">
	<g id="tab_x5F_v">
		<g>
			<path fill="#EC2127" d="M0,0v34.4c0,0,0,5.7,5.7,5.7H46V0H0z"/>
		</g>
	</g>
</g>
<g>
	<g>
		<polygon fill="none" points="5.3,6.9 9.7,19.1 11.1,18.6 10.8,17.7 10.3,17.9 6.2,6.6 		"/>
		<defs>
			<filter id="Adobe_OpacityMaskFilter" filterUnits="userSpaceOnUse" x="1.3" y="4.7" width="13.8" height="16.2">
				<feColorMatrix  type="matrix" values="1 0 0 0 0  0 1 0 0 0  0 0 1 0 0  0 0 0 1 0"/>
			</filter>
		</defs>
		<mask maskUnits="userSpaceOnUse" x="1.3" y="4.7" width="13.8" height="16.2" id="SVGID_9_">
			<g filter="url(#Adobe_OpacityMaskFilter)">
				<g>
					<g>
						<defs>
							<polygon id="SVGID_1_" points="5.3,6.9 9.7,19.1 11.1,18.6 10.8,17.7 10.3,17.9 6.2,6.6 							"/>
						</defs>
						<clipPath id="SVGID_2_">
							<use xlink:href="#SVGID_1_"  overflow="visible"/>
						</clipPath>
					</g>
					<g>
						<defs>
							<polygon id="SVGID_3_" points="5.3,6.9 9.7,19.1 11.1,18.6 10.8,17.7 10.3,17.9 6.2,6.6 							"/>
						</defs>
						<defs>
							
								<rect id="SVGID_4_" x="1.3" y="8" transform="matrix(-0.342 -0.9397 0.9397 -0.342 -1.1043 24.8776)" width="13.7" height="9.7"/>
						</defs>
						<clipPath id="SVGID_5_">
							<use xlink:href="#SVGID_3_"  overflow="visible"/>
						</clipPath>
						<clipPath id="SVGID_6_" clip-path="url(#SVGID_5_)">
							<use xlink:href="#SVGID_4_"  overflow="visible"/>
						</clipPath>
						
							<linearGradient id="SVGID_7_" gradientUnits="userSpaceOnUse" x1="23.1862" y1="6.4518" x2="23.2419" y2="6.4518" gradientTransform="matrix(-79.8354 -219.3439 219.3439 -79.8354 446.3054 5619.7158)">
							<stop  offset="0" style="stop-color:#FFFFFF"/>
							<stop  offset="0.6" style="stop-color:#FFFFFF"/>
							<stop  offset="1" style="stop-color:#000000"/>
						</linearGradient>
						<polygon clip-path="url(#SVGID_6_)" fill="url(#SVGID_7_)" points="2.9,25.5 -4,6.6 13.5,0.2 20.3,19 						"/>
					</g>
				</g>
			</g>
		</mask>
		
			<linearGradient id="SVGID_8_" gradientUnits="userSpaceOnUse" x1="23.1862" y1="6.4519" x2="23.2419" y2="6.4519" gradientTransform="matrix(-79.8354 -219.3439 219.3439 -79.8354 446.3054 5619.7163)">
			<stop  offset="0" style="stop-color:#FFFFFF"/>
			<stop  offset="0.6" style="stop-color:#FFFFFF"/>
			<stop  offset="1" style="stop-color:#FFFFFF"/>
		</linearGradient>
		<polygon mask="url(#SVGID_9_)" fill="url(#SVGID_8_)" points="6,20.9 1.3,8 10.4,4.7 15.1,17.6 		"/>
	</g>
	<g>
		<polygon fill="none" points="10.3,17.9 10.1,17.5 9.3,17.8 9.7,19.1 41.8,7.4 41.5,6.6 		"/>
		<defs>
			<filter id="Adobe_OpacityMaskFilter_1_" filterUnits="userSpaceOnUse" x="5.2" y="-3.9" width="40.6" height="33.5">
				<feColorMatrix  type="matrix" values="1 0 0 0 0  0 1 0 0 0  0 0 1 0 0  0 0 0 1 0"/>
			</filter>
		</defs>
		<mask maskUnits="userSpaceOnUse" x="5.2" y="-3.9" width="40.6" height="33.5" id="SVGID_16_">
			<g filter="url(#Adobe_OpacityMaskFilter_1_)">
				<g>
					<g>
						<defs>
							<polygon id="SVGID_10_" points="10.3,17.9 10.1,17.5 9.3,17.8 9.7,19.1 41.8,7.4 41.5,6.6 							"/>
						</defs>
						<clipPath id="SVGID_11_">
							<use xlink:href="#SVGID_10_"  overflow="visible"/>
						</clipPath>
					</g>
					<g>
						<defs>
							<polygon id="SVGID_12_" points="10.3,17.9 10.1,17.5 9.3,17.8 9.7,19.1 41.8,7.4 41.5,6.6 							"/>
						</defs>
						<defs>
							
								<rect id="SVGID_13_" x="8.2" y="1.4" transform="matrix(0.9397 -0.342 0.342 0.9397 -2.8552 9.5133)" width="34.8" height="22.8"/>
						</defs>
						<clipPath id="SVGID_14_">
							<use xlink:href="#SVGID_12_"  overflow="visible"/>
						</clipPath>
						<clipPath id="SVGID_15_" clip-path="url(#SVGID_14_)">
							<use xlink:href="#SVGID_13_"  overflow="visible"/>
						</clipPath>
						
							<linearGradient id="SVGID_17_" gradientUnits="userSpaceOnUse" x1="-6.5539" y1="-13.401" x2="-6.4982" y2="-13.401" gradientTransform="matrix(575.0352 -209.2948 209.2948 575.0352 6583.0283 6353.0029)">
							<stop  offset="0" style="stop-color:#FFFFFF"/>
							<stop  offset="0.6" style="stop-color:#FFFFFF"/>
							<stop  offset="1" style="stop-color:#000000"/>
						</linearGradient>
						<polygon clip-path="url(#SVGID_15_)" fill="url(#SVGID_17_)" points="-5.5,0 41.1,-16.9 56.5,25.7 10,42.6 						"/>
					</g>
				</g>
			</g>
		</mask>
		
			<linearGradient id="SVGID_18_" gradientUnits="userSpaceOnUse" x1="-6.5539" y1="-13.401" x2="-6.4982" y2="-13.401" gradientTransform="matrix(575.0352 -209.2948 209.2948 575.0352 6583.0288 6353.0029)">
			<stop  offset="0" style="stop-color:#FFFFFF"/>
			<stop  offset="0.6" style="stop-color:#FFFFFF"/>
			<stop  offset="1" style="stop-color:#FFFFFF"/>
		</linearGradient>
		<polygon mask="url(#SVGID_16_)" fill="url(#SVGID_18_)" points="5.2,8 38,-3.9 45.8,17.6 13.1,29.6 		"/>
	</g>
	<g>
		<polygon fill="none" points="24,20.4 23.8,21.8 26.1,21.8 23.1,25.7 22.8,26.9 38.1,26.9 38.3,25.5 25.2,25.5 28.2,21.6 
			28.4,20.4 		"/>
		<defs>
			<filter id="Adobe_OpacityMaskFilter_2_" filterUnits="userSpaceOnUse" x="21.7" y="17.8" width="17.6" height="11.6">
				<feColorMatrix  type="matrix" values="1 0 0 0 0  0 1 0 0 0  0 0 1 0 0  0 0 0 1 0"/>
			</filter>
		</defs>
		<mask maskUnits="userSpaceOnUse" x="21.7" y="17.8" width="17.6" height="11.6" id="SVGID_23_">
			<g filter="url(#Adobe_OpacityMaskFilter_2_)">
				<g>
					<g>
						<defs>
							<polygon id="SVGID_19_" points="24,20.4 23.8,21.8 26.1,21.8 23.1,25.7 22.8,26.9 38.1,26.9 38.3,25.5 25.2,25.5 28.2,21.6 
								28.4,20.4 							"/>
						</defs>
						<clipPath id="SVGID_20_">
							<use xlink:href="#SVGID_19_"  overflow="visible"/>
						</clipPath>
					</g>
					<g>
						<defs>
							<polygon id="SVGID_21_" points="24,20.4 23.8,21.8 26.1,21.8 23.1,25.7 22.8,26.9 38.1,26.9 38.3,25.5 25.2,25.5 28.2,21.6 
								28.4,20.4 							"/>
						</defs>
						<defs>
							
								<rect id="SVGID_22_" x="22.5" y="19.2" transform="matrix(0.9848 0.1737 -0.1737 0.9848 4.5808 -4.9506)" width="16.2" height="8.9"/>
						</defs>
						<clipPath id="SVGID_24_">
							<use xlink:href="#SVGID_21_"  overflow="visible"/>
						</clipPath>
						<clipPath id="SVGID_25_" clip-path="url(#SVGID_24_)">
							<use xlink:href="#SVGID_22_"  overflow="visible"/>
						</clipPath>
						
							<linearGradient id="SVGID_26_" gradientUnits="userSpaceOnUse" x1="-18.7733" y1="-28.8178" x2="-18.7176" y2="-28.8178" gradientTransform="matrix(264.7573 46.6834 -46.6834 264.7573 3648.6465 8528.5332)">
							<stop  offset="0" style="stop-color:#FFFFFF"/>
							<stop  offset="0.6" style="stop-color:#FFFFFF"/>
							<stop  offset="1" style="stop-color:#000000"/>
						</linearGradient>
						<polygon clip-path="url(#SVGID_25_)" fill="url(#SVGID_26_)" points="22.3,14.8 41.4,18.1 38.9,32.5 19.7,29.2 						"/>
					</g>
				</g>
			</g>
		</mask>
		
			<linearGradient id="SVGID_27_" gradientUnits="userSpaceOnUse" x1="-18.774" y1="-28.8167" x2="-18.7183" y2="-28.8167" gradientTransform="matrix(264.7573 46.6834 -46.6834 264.7573 3648.8853 8528.293)">
			<stop  offset="0" style="stop-color:#FFFFFF"/>
			<stop  offset="0.6" style="stop-color:#FFFFFF"/>
			<stop  offset="1" style="stop-color:#FFFFFF"/>
		</linearGradient>
		<polygon mask="url(#SVGID_23_)" fill="url(#SVGID_27_)" points="23.4,17.8 39.4,20.6 37.8,29.5 21.7,26.7 		"/>
	</g>
	<g>
		<path fill="#FFFFFF" d="M21.7,19.8l0.2-1.3h1.8l-0.2,1.3H21.7z M7.9,25.1l-0.8-4.6h1.8l0.3,2.9l1.3-2.9h1.8l-2.4,4.6H7.9z
			 M33.3,25.1l0.8-4.6h1.7l-0.1,0.7c0.5-0.6,1-0.9,1.7-0.9c1.2,0,1.7,0.7,1.4,2l-0.4,2.8h-1.8l0.4-2.4c0.1-0.5,0-0.9-0.5-0.9
			c-0.6,0-0.8,0.4-0.9,1l-0.4,2.3H33.3z M17,25.1l0.8-4.6h1.7l-0.2,0.9l0,0c0.4-0.7,0.9-1.1,1.6-1.1c0.1,0,0.2,0,0.2,0L20.8,22
			c-0.1,0-0.2-0.1-0.4-0.1c-0.7,0-1.2,0.4-1.4,1.3l-0.2,1.8H17z M31,21.5c-0.6,0-0.9,0.6-1,1.2c-0.2,0.9,0.1,1.3,0.6,1.3
			s0.9-0.4,1-1.3C31.7,22,31.5,21.5,31,21.5 M28.1,22.8c0.3-1.6,1.5-2.5,3.1-2.5c1.6,0,2.5,1,2.2,2.4c-0.3,1.7-1.6,2.5-3.1,2.5
			C28.8,25.3,27.8,24.4,28.1,22.8 M13.6,22.2h1.7c0.1-0.4-0.2-0.8-0.7-0.8C14,21.4,13.7,21.7,13.6,22.2 M16.9,23.2h-3.5
			c-0.1,0.5,0.3,0.9,0.7,0.9c0.3,0,0.6-0.1,0.8-0.4h1.8c-0.5,1.1-1.7,1.5-2.8,1.5c-1.5,0-2.5-0.8-2.2-2.4c0.3-1.5,1.6-2.5,3.1-2.5
			C16.4,20.3,17.3,21.5,16.9,23.2 M22.6,25.1h-1.8l0.8-4.6h1.8L22.6,25.1z"/>
	</g>
</g>
</svg>
