<?xml version="1.0" encoding="utf-8"?>
<!-- Generator: Adobe Illustrator 18.0.0, SVG Export Plug-In . SVG Version: 6.00 Build 0)  -->
<!DOCTYPE svg PUBLIC "-//W3C//DTD SVG 1.1//EN" "http://www.w3.org/Graphics/SVG/1.1/DTD/svg11.dtd">
<svg version="1.1" id="Layer_1" xmlns="http://www.w3.org/2000/svg" xmlns:xlink="http://www.w3.org/1999/xlink" x="0px" y="0px"
	 viewBox="0 0 612 612" enable-background="new 0 0 612 612" xml:space="preserve">
<g id="Layer_1_1_">
	<g>
		<path fill="#ED1C24" d="M0,0v536.2c0,0,0,75.8,75.8,75.8H612V0H0z"/>
	</g>
	
		<linearGradient id="SVGID_1_" gradientUnits="userSpaceOnUse" x1="5.5065" y1="574.1555" x2="-2.3137" y2="597.9975" gradientTransform="matrix(9.1343 0 0 -9.1343 90 5590.2085)">
		<stop  offset="0.4846" style="stop-color:#FFFFFF"/>
		<stop  offset="0.4925" style="stop-color:#FEF7F7"/>
		<stop  offset="0.5454" style="stop-color:#FAC4C6"/>
		<stop  offset="0.6008" style="stop-color:#F7979B"/>
		<stop  offset="0.6577" style="stop-color:#F47176"/>
		<stop  offset="0.7164" style="stop-color:#F15258"/>
		<stop  offset="0.7776" style="stop-color:#EF3A41"/>
		<stop  offset="0.8422" style="stop-color:#EE2931"/>
		<stop  offset="0.9127" style="stop-color:#ED1F27"/>
		<stop  offset="1" style="stop-color:#ED1C24"/>
	</linearGradient>
	<polygon fill="url(#SVGID_1_)" points="70.3,172.6 129.7,335.2 148,328.8 143.4,317 137,319.7 82.2,168.1 	"/>
	
		<linearGradient id="SVGID_2_" gradientUnits="userSpaceOnUse" x1="3.6471" y1="584.45" x2="50.9471" y2="584.45" gradientTransform="matrix(9.1343 0 0 -9.1343 90 5590.2085)">
		<stop  offset="0.3029" style="stop-color:#FFFFFF"/>
		<stop  offset="0.4078" style="stop-color:#FFFBFC"/>
		<stop  offset="0.5017" style="stop-color:#FEF1F1"/>
		<stop  offset="0.5916" style="stop-color:#FCDEDF"/>
		<stop  offset="0.6788" style="stop-color:#FAC4C7"/>
		<stop  offset="0.7643" style="stop-color:#F8A3A6"/>
		<stop  offset="0.8484" style="stop-color:#F47A7F"/>
		<stop  offset="0.9298" style="stop-color:#F14B52"/>
		<stop  offset="1" style="stop-color:#ED1C24"/>
	</linearGradient>
	<polygon fill="url(#SVGID_2_)" points="137,319.7 135.2,314.2 123.3,318.8 129.7,335.2 555.4,179.9 550.8,168.1 	"/>
		<linearGradient id="SVGID_3_" gradientUnits="userSpaceOnUse" x1="23.4471" y1="568.7" x2="45.8471" y2="568.7" gradientTransform="matrix(9.1343 0 0 -9.1343 90 5590.2085)">
		<stop  offset="0.2223" style="stop-color:#FFFFFF"/>
		<stop  offset="0.3539" style="stop-color:#FFFCFC"/>
		<stop  offset="0.4603" style="stop-color:#FEF2F2"/>
		<stop  offset="0.5578" style="stop-color:#FDE1E2"/>
		<stop  offset="0.6501" style="stop-color:#FBC9CB"/>
		<stop  offset="0.7388" style="stop-color:#F8AAAD"/>
		<stop  offset="0.8247" style="stop-color:#F58488"/>
		<stop  offset="0.9083" style="stop-color:#F2575D"/>
		<stop  offset="0.9882" style="stop-color:#EE242C"/>
		<stop  offset="1" style="stop-color:#ED1C24"/>
	</linearGradient>
	<polygon fill="url(#SVGID_3_)" points="318.8,353.5 315.1,370.9 346.2,370.9 306.9,422 304.2,437.5 506,437.5 508.8,420.2 
		335.2,420.2 374.5,369 377.2,353.5 	"/>
	<path fill="#FFFFFF" d="M288.6,345.3l2.7-17.4H316l-2.7,17.4H288.6z M443,414.7l11-61.2h21.9l-1.8,10c6.4-7.3,13.7-11,22.8-11
		c16.4,0,21.9,9.1,19.2,26.5l-6.4,36.5H485l5.5-32.9c0.9-6.4,0-11.9-6.4-11.9c-7.3,0-10,4.6-11.9,12.8l-5.5,31.1L443,414.7
		L443,414.7z M226.5,414.7l11-61.2h21.9l-2.7,11.9l0,0c5.5-10,11.9-14.6,21-14.6c0.9,0,1.8,0,2.7,0l-4.6,24.7
		c-1.8,0-3.7-0.9-4.6-0.9c-10,0-15.5,4.6-18.3,18.3l-3.7,21h-22.8V414.7z M412,368.1c-8.2,0-11.9,8.2-13.7,15.5
		c-1.8,11.9,1.8,16.4,7.3,16.4c6.4,0,11.9-5.5,13.7-16.4C421.1,374.5,418.4,367.2,412,368.1 M372.7,384.6
		c3.7-21,20.1-32.9,41.1-32.9c21.9,0,32.9,12.8,29.2,32c-3.7,22.8-21,32.9-41.1,32.9C382.7,416.5,369,405.6,372.7,384.6
		 M180.9,377.2h21.9c0.9-5.5-2.7-11-9.1-11C187.3,366.3,182.7,369.9,180.9,377.2 M225.6,389.1H179c-0.9,7.3,3.7,11.9,10,11.9
		c3.7,0,7.3-1.8,10-5.5h23.7c-7.3,15.5-23.7,20.1-37.5,20.1c-20.1,0-32.9-11-29.2-32c3.7-20.1,21-32.9,41.1-32.9
		C219.2,351.7,230.2,367.2,225.6,389.1 M301.4,414.7h-24.7l11-61.2h24.7L301.4,414.7z"/>
</g>
<g id="guides">
	<polygon fill="#FFFFFF" points="105,414.7 95,353.5 118.7,353.5 123.3,391.9 140.7,353.5 164.4,353.5 132.4,414.7 	"/>
</g>
</svg>
