<?xml version="1.0" encoding="iso-8859-1"?>
<!-- Generator: Adobe Illustrator 16.2.1, SVG Export Plug-In . SVG Version: 6.00 Build 0)  -->
<!DOCTYPE svg PUBLIC "-//W3C//DTD SVG 1.1//EN" "http://www.w3.org/Graphics/SVG/1.1/DTD/svg11.dtd">
<svg version="1.1" id="Layer_1" xmlns="http://www.w3.org/2000/svg" xmlns:xlink="http://www.w3.org/1999/xlink" x="0px" y="0px"
	 width="67px" height="67px" viewBox="0 0 67 67" style="enable-background:new 0 0 67 67;" xml:space="preserve">
<g>
	<path style="fill:#ED1C24;" d="M0,0v58.746C0,58.746,0,67,8.284,67H67V0H0z"/>
	<g>
		<g>
			<defs>
				<polygon id="SVGID_1_" points="7.704,18.914 14.177,36.701 16.173,35.976 15.707,34.694 14.992,34.955 8.984,18.447 				"/>
			</defs>
			<clipPath id="SVGID_2_">
				<use xlink:href="#SVGID_1_"  style="overflow:visible;"/>
			</clipPath>
			<defs>
				<filter id="Adobe_OpacityMaskFilter" filterUnits="userSpaceOnUse" x="-5.78" y="9.231" width="35.435" height="36.684">
					<feColorMatrix  type="matrix" values="1 0 0 0 0  0 1 0 0 0  0 0 1 0 0  0 0 0 1 0"/>
				</filter>
			</defs>
			<mask maskUnits="userSpaceOnUse" x="-5.78" y="9.231" width="35.435" height="36.684" id="SVGID_3_">
				<g style="filter:url(#Adobe_OpacityMaskFilter);">
					<rect x="1.836" y="15.725" style="clip-path:url(#SVGID_2_);" width="20.203" height="23.699"/>
					<g style="enable-background:new    ;">
						<g>
							<defs>
								
									<rect id="SVGID_4_" x="1.913" y="20.474" transform="matrix(-0.342 -0.9397 0.9397 -0.342 -9.8903 48.2243)" width="20.05" height="14.201"/>
							</defs>
							<clipPath id="SVGID_5_" style="clip-path:url(#SVGID_2_);">
								<use xlink:href="#SVGID_4_"  style="overflow:visible;"/>
							</clipPath>
							
								<linearGradient id="SVGID_6_" gradientUnits="userSpaceOnUse" x1="-0.2437" y1="65.5576" x2="0.9971" y2="65.5576" gradientTransform="matrix(-5.2177 -14.3353 14.3353 -5.2177 -925.9167 374.9226)">
								<stop  offset="0" style="stop-color:#FFFFFF"/>
								<stop  offset="0.6" style="stop-color:#FFFFFF"/>
								<stop  offset="1" style="stop-color:#000000"/>
							</linearGradient>
							<polygon style="clip-path:url(#SVGID_5_);fill:url(#SVGID_6_);" points="29.655,36.65 19.676,9.232 -5.779,18.498 
								4.2,45.915 							"/>
						</g>
					</g>
				</g>
			</mask>
			<g style="clip-path:url(#SVGID_2_);mask:url(#SVGID_3_);">
				<g>
					<defs>
						<rect id="SVGID_7_" x="1.837" y="15.725" width="20.203" height="23.698"/>
					</defs>
					<clipPath id="SVGID_8_">
						<use xlink:href="#SVGID_7_"  style="overflow:visible;"/>
					</clipPath>
					<g style="clip-path:url(#SVGID_8_);">
						<defs>
							
								<rect id="SVGID_9_" x="1.913" y="20.473" transform="matrix(0.342 0.9397 -0.9397 0.342 33.7655 6.9243)" width="20.05" height="14.202"/>
						</defs>
						<clipPath id="SVGID_10_">
							<use xlink:href="#SVGID_9_"  style="overflow:visible;"/>
						</clipPath>
						
							<linearGradient id="SVGID_11_" gradientUnits="userSpaceOnUse" x1="-0.2534" y1="65.5566" x2="0.988" y2="65.5566" gradientTransform="matrix(-5.2164 -14.3317 14.3317 -5.2164 -925.7329 374.6959)">
							<stop  offset="0" style="stop-color:#FFFFFF"/>
							<stop  offset="0.6" style="stop-color:#FFFFFF"/>
							<stop  offset="1" style="stop-color:#FFFFFF"/>
						</linearGradient>
						<polygon style="clip-path:url(#SVGID_10_);fill:url(#SVGID_11_);" points="29.655,36.65 19.676,9.231 -5.78,18.497 
							4.2,45.915 						"/>
					</g>
				</g>
			</g>
		</g>
		<g>
			<defs>
				<polygon id="SVGID_12_" points="14.992,34.955 14.79,34.402 13.512,34.872 14.177,36.701 60.809,19.729 60.343,18.446 				"/>
			</defs>
			<clipPath id="SVGID_13_">
				<use xlink:href="#SVGID_12_"  style="overflow:visible;"/>
			</clipPath>
			<defs>
				<filter id="Adobe_OpacityMaskFilter_1_" filterUnits="userSpaceOnUse" x="-7.993" y="-15.728" width="90.306" height="86.602">
					<feColorMatrix  type="matrix" values="1 0 0 0 0  0 1 0 0 0  0 0 1 0 0  0 0 0 1 0"/>
				</filter>
			</defs>
			<mask maskUnits="userSpaceOnUse" x="-7.993" y="-15.728" width="90.306" height="86.602" id="SVGID_14_">
				<g style="filter:url(#Adobe_OpacityMaskFilter_1_);">
					<rect x="7.645" y="3.245" style="clip-path:url(#SVGID_13_);" width="59.03" height="48.656"/>
					<g style="enable-background:new    ;">
						<g>
							<defs>
								
									<rect id="SVGID_15_" x="20.495" y="2.231" transform="matrix(-0.342 -0.9397 0.9397 -0.342 23.957 71.9239)" width="33.331" height="50.687"/>
							</defs>
							<clipPath id="SVGID_16_" style="clip-path:url(#SVGID_13_);">
								<use xlink:href="#SVGID_15_"  style="overflow:visible;"/>
							</clipPath>
							
								<linearGradient id="SVGID_17_" gradientUnits="userSpaceOnUse" x1="-0.2646" y1="66.3242" x2="0.9759" y2="66.3242" gradientTransform="matrix(37.5852 -13.6798 13.6798 37.5852 -883.443 -2460.3943)">
								<stop  offset="0" style="stop-color:#FFFFFF"/>
								<stop  offset="0.6" style="stop-color:#FFFFFF"/>
								<stop  offset="1" style="stop-color:#000000"/>
							</linearGradient>
							<polygon style="clip-path:url(#SVGID_16_);fill:url(#SVGID_17_);" points="14.551,70.875 82.312,46.212 59.771,-15.725 
								-7.992,8.938 							"/>
						</g>
					</g>
				</g>
			</mask>
			<g style="clip-path:url(#SVGID_13_);mask:url(#SVGID_14_);">
				<g>
					<defs>
						<rect id="SVGID_18_" x="7.645" y="3.245" width="59.03" height="48.656"/>
					</defs>
					<clipPath id="SVGID_19_">
						<use xlink:href="#SVGID_18_"  style="overflow:visible;"/>
					</clipPath>
					<g style="clip-path:url(#SVGID_19_);">
						<defs>
							
								<rect id="SVGID_20_" x="11.815" y="10.908" transform="matrix(-0.9397 0.342 -0.342 -0.9397 81.5088 40.7748)" width="50.689" height="33.33"/>
						</defs>
						<clipPath id="SVGID_21_">
							<use xlink:href="#SVGID_20_"  style="overflow:visible;"/>
						</clipPath>
						
							<linearGradient id="SVGID_22_" gradientUnits="userSpaceOnUse" x1="-0.2598" y1="66.3369" x2="0.9812" y2="66.3369" gradientTransform="matrix(37.5824 -13.6788 13.6788 37.5824 -883.7517 -2460.615)">
							<stop  offset="0" style="stop-color:#FFFFFF"/>
							<stop  offset="0.6" style="stop-color:#FFFFFF"/>
							<stop  offset="1" style="stop-color:#FFFFFF"/>
						</linearGradient>
						<polygon style="clip-path:url(#SVGID_21_);fill:url(#SVGID_22_);" points="14.55,70.874 82.312,46.209 59.771,-15.728 
							-7.993,8.936 						"/>
					</g>
				</g>
			</g>
		</g>
		<g>
			<defs>
				<polygon id="SVGID_23_" points="34.881,38.657 34.533,40.607 37.872,40.607 33.608,46.228 33.301,47.948 55.373,47.948 
					55.72,45.998 36.664,45.998 40.957,40.375 41.267,38.657 				"/>
			</defs>
			<clipPath id="SVGID_24_">
				<use xlink:href="#SVGID_23_"  style="overflow:visible;"/>
			</clipPath>
			<defs>
				<filter id="Adobe_OpacityMaskFilter_2_" filterUnits="userSpaceOnUse" x="28.812" y="30.444" width="31.395" height="25.715">
					<feColorMatrix  type="matrix" values="1 0 0 0 0  0 1 0 0 0  0 0 1 0 0  0 0 0 1 0"/>
				</filter>
			</defs>
			<mask maskUnits="userSpaceOnUse" x="28.812" y="30.444" width="31.395" height="25.715" id="SVGID_25_">
				<g style="filter:url(#Adobe_OpacityMaskFilter_2_);">
					<rect x="31.712" y="34.822" style="clip-path:url(#SVGID_24_);" width="25.597" height="16.961"/>
					<g style="enable-background:new    ;">
						<g>
							<defs>
								
									<rect id="SVGID_26_" x="32.666" y="36.779" transform="matrix(-0.9848 -0.1737 0.1737 -0.9848 80.8254 93.6775)" width="23.691" height="13.047"/>
							</defs>
							<clipPath id="SVGID_27_" style="clip-path:url(#SVGID_24_);">
								<use xlink:href="#SVGID_26_"  style="overflow:visible;"/>
							</clipPath>
							
								<linearGradient id="SVGID_28_" gradientUnits="userSpaceOnUse" x1="-0.1797" y1="66.7295" x2="1.0612" y2="66.7295" gradientTransform="matrix(17.3087 3.052 -3.052 17.3087 241.1325 -1112.9357)">
								<stop  offset="0" style="stop-color:#FFFFFF"/>
								<stop  offset="0.6" style="stop-color:#FFFFFF"/>
								<stop  offset="1" style="stop-color:#000000"/>
							</linearGradient>
							<polygon style="clip-path:url(#SVGID_27_);fill:url(#SVGID_28_);" points="28.812,51.272 56.536,56.16 60.21,35.332 
								32.484,30.443 							"/>
						</g>
					</g>
				</g>
			</mask>
			<g style="clip-path:url(#SVGID_24_);mask:url(#SVGID_25_);">
				<g>
					<defs>
						<rect id="SVGID_29_" x="31.712" y="34.822" width="25.597" height="16.961"/>
					</defs>
					<clipPath id="SVGID_30_">
						<use xlink:href="#SVGID_29_"  style="overflow:visible;"/>
					</clipPath>
					<g style="clip-path:url(#SVGID_30_);">
						<defs>
							
								<rect id="SVGID_31_" x="32.663" y="36.78" transform="matrix(-0.9848 -0.1736 0.1736 -0.9848 80.8259 93.6752)" width="23.693" height="13.046"/>
						</defs>
						<clipPath id="SVGID_32_">
							<use xlink:href="#SVGID_31_"  style="overflow:visible;"/>
						</clipPath>
						
							<linearGradient id="SVGID_33_" gradientUnits="userSpaceOnUse" x1="-0.1875" y1="66.7227" x2="1.0534" y2="66.7227" gradientTransform="matrix(17.3087 3.052 -3.052 17.3087 241.2263 -1112.795)">
							<stop  offset="0" style="stop-color:#FFFFFF"/>
							<stop  offset="0.6" style="stop-color:#FFFFFF"/>
							<stop  offset="1" style="stop-color:#FFFFFF"/>
						</linearGradient>
						<polygon style="clip-path:url(#SVGID_32_);fill:url(#SVGID_33_);" points="28.812,51.271 56.536,56.159 60.207,35.333 
							32.484,30.444 						"/>
					</g>
				</g>
			</g>
		</g>
		<path style="fill-rule:evenodd;clip-rule:evenodd;fill:#FFFFFF;" d="M31.635,37.793l0.335-1.902h2.672l-0.334,1.902H31.635z
			 M11.517,45.39l-1.151-6.734h2.672l0.433,4.253l1.919-4.253h2.57l-3.463,6.734H11.517z M48.5,45.39l1.19-6.734h2.44l-0.187,1.054
			c0.748-0.811,1.48-1.247,2.495-1.247c1.774,0,2.424,1.041,2.102,2.892l-0.713,4.036h-2.675l0.63-3.561
			c0.116-0.668,0.041-1.261-0.718-1.261c-0.821,0-1.134,0.528-1.284,1.391l-0.605,3.431H48.5z M24.762,45.39l1.187-6.734h2.43
			l-0.241,1.361h0.026c0.557-1.055,1.301-1.555,2.343-1.555c0.116,0,0.227,0.025,0.34,0.037l-0.472,2.675
			c-0.175-0.025-0.358-0.077-0.539-0.077c-1.093,0-1.735,0.516-1.991,1.967l-0.41,2.326H24.762z M45.141,40.261
			c-0.912,0-1.347,0.938-1.479,1.698c-0.225,1.271,0.154,1.824,0.835,1.824c0.719,0,1.253-0.554,1.479-1.824
			C46.146,40.969,45.842,40.223,45.141,40.261 M40.847,42.098c0.412-2.338,2.184-3.636,4.46-3.636c2.377,0,3.594,1.399,3.226,3.497
			c-0.437,2.467-2.31,3.624-4.469,3.624S40.442,44.4,40.847,42.098 M19.837,41.265h2.431c0.108-0.618-0.347-1.171-0.978-1.171
			C20.495,40.094,19.965,40.545,19.837,41.265 M24.7,42.626h-5.102c-0.141,0.798,0.383,1.323,1.09,1.323
			c0.423,0,0.844-0.192,1.107-0.59h2.557c-0.757,1.67-2.551,2.224-4.12,2.224c-2.159,0-3.613-1.233-3.213-3.496
			c0.39-2.211,2.297-3.625,4.457-3.625C23.969,38.462,25.168,40.184,24.7,42.626 M32.969,45.39h-2.673l1.188-6.734h2.67
			L32.969,45.39z"/>
	</g>
</g>
<g style="display:none;">
	<g style="display:inline;">
		<g>
			<defs>
				<rect id="SVGID_34_" x="5.89" y="23.356" width="5.89" height="6.632"/>
			</defs>
			<clipPath id="SVGID_35_">
				<use xlink:href="#SVGID_34_"  style="overflow:visible;"/>
			</clipPath>
			<polygon style="clip-path:url(#SVGID_35_);fill:#3ABDB1;" points="5.89,29.988 5.89,27.677 9.623,27.3 5.89,25.602 5.89,23.356 
				11.78,26.381 11.78,28.985 			"/>
		</g>
	</g>
	<g style="display:inline;">
		<g>
			<defs>
				<rect id="SVGID_36_" y="23.356" width="5.89" height="6.632"/>
			</defs>
			<clipPath id="SVGID_37_">
				<use xlink:href="#SVGID_36_"  style="overflow:visible;"/>
			</clipPath>
			<polygon style="clip-path:url(#SVGID_37_);fill:#3ABDB1;" points="0,29.988 0,27.677 3.733,27.3 0,25.602 0,23.356 5.89,26.381 
				5.89,28.985 			"/>
		</g>
	</g>
</g>
<line style="display:none;fill:none;stroke:#3ABDB1;stroke-width:0.25;stroke-miterlimit:10;" x1="11.816" y1="0" x2="11.816" y2="250"/>
<line style="display:none;fill:none;stroke:#3ABDB1;stroke-width:0.25;stroke-miterlimit:10;" x1="20.057" y1="0" x2="20.057" y2="250"/>
<line style="display:none;fill:none;stroke:#3ABDB1;stroke-width:0.25;stroke-miterlimit:10;" x1="0" y1="54.162" x2="299" y2="54.162"/>
<line style="display:none;fill:none;stroke:#3ABDB1;stroke-width:0.25;stroke-miterlimit:10;" x1="0.247" y1="60.079" x2="299.247" y2="60.079"/>
<line style="display:none;fill:none;stroke:#3ABDB1;stroke-width:0.25;stroke-miterlimit:10;" x1="0.164" y1="65.997" x2="299.164" y2="65.997"/>
<line style="display:none;fill:none;stroke:#3ABDB1;stroke-width:0.25;stroke-miterlimit:10;" x1="5.876" y1="0" x2="5.876" y2="250"/>
<line style="display:none;fill:none;stroke:#3ABDB1;stroke-width:0.25;stroke-miterlimit:10;" x1="65.793" y1="2.799" x2="65.793" y2="252.799"/>
<line style="display:none;fill:none;stroke:#3ABDB1;stroke-width:0.25;stroke-miterlimit:10;" x1="0" y1="0" x2="0" y2="250"/>
<g style="display:none;">
	<g style="display:inline;">
		<g>
			<defs>
				<rect id="SVGID_38_" x="65.848" y="23.356" width="5.889" height="6.632"/>
			</defs>
			<clipPath id="SVGID_39_">
				<use xlink:href="#SVGID_38_"  style="overflow:visible;"/>
			</clipPath>
			<polygon style="clip-path:url(#SVGID_39_);fill:#3ABDB1;" points="65.848,29.988 65.848,27.677 69.58,27.3 65.848,25.602 
				65.848,23.356 71.737,26.381 71.737,28.985 			"/>
		</g>
	</g>
</g>
<g style="display:none;">
	<g style="display:inline;">
		<g>
			<defs>
				<rect id="SVGID_42_" x="29.808" y="54.182" width="6.632" height="5.891"/>
			</defs>
			<clipPath id="SVGID_41_">
				<use xlink:href="#SVGID_42_"  style="overflow:visible;"/>
			</clipPath>
			<polygon style="clip-path:url(#SVGID_41_);fill:#3ABDB1;" points="29.808,54.182 32.119,54.182 32.494,57.915 34.195,54.182 
				36.44,54.182 33.414,60.072 30.811,60.072 			"/>
		</g>
	</g>
	<g style="display:inline;">
		<g>
			<defs>
				<rect id="SVGID_44_" x="29.808" y="60.106" width="6.632" height="5.89"/>
			</defs>
			<clipPath id="SVGID_43_">
				<use xlink:href="#SVGID_44_"  style="overflow:visible;"/>
			</clipPath>
			<polygon style="clip-path:url(#SVGID_43_);fill:#3ABDB1;" points="29.808,60.106 32.119,60.106 32.494,63.839 34.195,60.106 
				36.44,60.106 33.414,65.996 30.811,65.996 			"/>
		</g>
	</g>
</g>
</svg>
